<svg xmlns="http://www.w3.org/2000/svg" width="32px" height="32px" viewBox="0 0 640 512" fill="#a0a0a0" class="default">
  <!-- Three chain links -->
  <path d="M96 224h64c35.3 0 64 28.7 64 64s-28.7 64-64 64H96c-35.3 0-64-28.7-64-64s28.7-64 64-64zm0 96h64c17.7 0 32-14.3 32-32s-14.3-32-32-32H96c-17.7 0-32 14.3-32 32s14.3 32 32 32zm192-96h64c35.3 0 64 28.7 64 64s-28.7 64-64 64h-64c-35.3 0-64-28.7-64-64s28.7-64 64-64zm0 96h64c17.7 0 32-14.3 32-32s-14.3-32-32-32h-64c-17.7 0-32 14.3-32 32s14.3 32 32 32zm192-96h64c35.3 0 64 28.7 64 64s-28.7 64-64 64h-64c-35.3 0-64-28.7-64-64s28.7-64 64-64zm0 96h64c17.7 0 32-14.3 32-32s-14.3-32-32-32h-64c-17.7 0-32 14.3-32 32s14.3 32 32 32z"/>
</svg>
