<svg xmlns="http://www.w3.org/2000/svg" viewBox="0 0 512 512"><!--Derived from Font Awesome Free 6.7.2 fa-file (https://fontawesome.com, License: https://fontawesome.com/license/free, Copyright 2025 Fonticons, Inc.) with three summary lines cut out to represent the reduced "essential" report. Same viewBox/page geometry as fa-file-pdf.svg so both icons align.--><path class="default" fill-rule="evenodd" d="M0 64C0 28.7 28.7 0 64 0L224 0l0 128c0 17.7 14.3 32 32 32l128 0 0 288c0 35.3-28.7 64-64 64L64 512c-35.3 0-64-28.7-64-64L0 64zm384 64l-128 0L256 0 384 128zM80 224h224v32H80zm0 72h224v32H80zm0 72h224v32H80z"/></svg>
